<?xml version="1.0" encoding="utf-8"?>
<!-- Generator: Adobe Illustrator 25.0.0, SVG Export Plug-In . SVG Version: 6.00 Build 0)  -->
<svg version="1.1" id="Layer_1" xmlns="http://www.w3.org/2000/svg" xmlns:xlink="http://www.w3.org/1999/xlink" x="0px" y="0px"
	 viewBox="0 0 343 120" style="enable-background:new 0 0 343 120;" xml:space="preserve">
<style type="text/css">
	.st0{fill:#EE403D;}
	.st1{fill-rule:evenodd;clip-rule:evenodd;}
</style>
<g>
	<path class="st0" d="M30.3,67.6c-1.2-0.8-2.2-1.9-2.9-3.3c-0.1-0.1-0.1-0.2-0.2-0.4v13.4l4.9-3.9c1.2,1.8,2.5,3.1,4.1,4.1
		c1.6,1,3.5,1.5,5.7,1.5c1.6,0,2.8-0.3,3.7-1c0.8-0.7,1.2-1.6,1.2-2.6c0-0.6-0.2-1.2-0.5-1.6c-0.3-0.4-0.8-0.8-1.5-1.1
		c-0.7-0.3-1.5-0.6-2.5-0.9c-1-0.3-2.2-0.6-3.6-0.9c-1.4-0.3-2.9-0.7-4.4-1.2C32.8,69.1,31.5,68.4,30.3,67.6z M40.5,62.2
		c1,0.2,2.1,0.5,3.3,0.8c1.5,0.3,3,0.7,4.5,1.2c1.5,0.5,2.9,1.2,4.1,2.1c1.2,0.9,2.2,2,3,3.3V55l-6.6,5.1c-0.9-1.5-2.1-2.6-3.4-3.4
		c-1.3-0.8-3-1.2-5-1.2c-1.6,0-2.8,0.4-3.6,1.1c-0.8,0.7-1.1,1.5-1.1,2.4c0,0.6,0.2,1.1,0.6,1.5c0.4,0.4,0.9,0.7,1.6,1
		C38.6,61.7,39.5,62,40.5,62.2z M56.2,0.5L0.6,56.1l17.1,17.1V47.8h9.5v6.9c0-0.1,0.1-0.2,0.1-0.3c0.7-1.5,1.7-2.8,3-3.8
		c1.3-1.1,2.8-1.9,4.5-2.5c1.8-0.6,3.7-0.9,5.8-0.9c1.8,0,3.4,0.2,4.9,0.5c1.5,0.3,2.8,0.8,4.1,1.4c1.2,0.6,2.4,1.3,3.5,2.2
		c0.7,0.6,1.5,1.3,2.2,2v-5.3h27.4v8.8h-18V63h15.4c0.3-1.2,0.6-2.4,1.1-3.5c1-2.5,2.4-4.6,4.2-6.4c1.8-1.8,3.9-3.2,6.4-4.3
		c2.5-1,5.2-1.6,8.2-1.6c3.8,0,7.1,0.7,9.9,2.2c1.7,0.9,3.3,2,4.7,3.3l-6.7,6.7c-0.7-0.8-1.6-1.5-2.6-2c-1.5-0.8-3.3-1.2-5.3-1.2
		c-1.5,0-2.9,0.3-4.3,0.9c-1.3,0.6-2.5,1.4-3.5,2.4c-1,1-1.8,2.2-2.4,3.6c-0.6,1.4-0.9,2.9-0.9,4.5c0,1.7,0.3,3.2,0.8,4.6
		c0.5,1.4,1.3,2.6,2.3,3.6c1,1,2.2,1.8,3.5,2.3c1.4,0.5,2.9,0.8,4.5,0.8c2.3,0,4.2-0.5,5.7-1.6c1.5-1.1,2.7-2.6,3.4-4.5h-11v-8.8
		h21.2V64l0,0V0.5H56.2z M85.3,81.8c-1.8-1.9-3.2-4-4.1-6.5c-0.4-1.1-0.8-2.3-1-3.5H64.8v6.7h18v8.8H55.4v-7c-0.7,1.5-1.8,2.8-3,3.9
		c-1.3,1.2-2.9,2.1-4.8,2.7c-1.8,0.6-3.8,1-6,1c-2.2,0-4.2-0.2-5.9-0.6c-1.7-0.4-3.3-0.9-4.8-1.6c-0.7-0.4-1.4-0.7-2-1.2L64,119.5
		l32.1-32.1c-1.5-0.3-3-0.7-4.3-1.3C89.3,85.1,87.1,83.6,85.3,81.8z"/>
	<g>
		<path class="st0" d="M139.1,47.5h2.2v9.1h5.2v2.1h-7.4V47.5z"/>
		<path class="st0" d="M147.2,48.1c0-0.4,0.1-0.7,0.4-1c0.3-0.3,0.6-0.4,1-0.4c0.4,0,0.7,0.1,1,0.4c0.3,0.3,0.4,0.6,0.4,1
			c0,0.4-0.1,0.7-0.4,1c-0.3,0.3-0.6,0.4-1,0.4c-0.4,0-0.7-0.1-1-0.4C147.3,48.8,147.2,48.5,147.2,48.1z M147.4,50.4h2.2v8.3h-2.2
			V50.4z"/>
		<path class="st0" d="M154.1,58.9c-1,0-1.8-0.2-2.4-0.5c-0.6-0.4-1.1-0.9-1.4-1.5l2-0.8c0.4,0.7,1,1.1,1.9,1.1c0.4,0,0.8-0.1,1-0.3
			c0.2-0.2,0.3-0.4,0.3-0.6c0-0.2-0.1-0.3-0.2-0.4c-0.1-0.1-0.2-0.2-0.4-0.2c-0.2-0.1-0.4-0.1-0.6-0.2c-0.2-0.1-0.5-0.1-0.8-0.2
			c-0.3-0.1-0.7-0.2-1.1-0.3c-0.4-0.1-0.7-0.2-1-0.4c-0.3-0.2-0.5-0.4-0.7-0.7c-0.2-0.3-0.3-0.6-0.3-1.1c0-0.3,0.1-0.7,0.2-1
			c0.2-0.3,0.4-0.6,0.7-0.8c0.3-0.2,0.7-0.4,1.1-0.6c0.4-0.1,0.9-0.2,1.4-0.2c0.9,0,1.6,0.2,2.1,0.5c0.6,0.3,1,0.7,1.4,1.3l-1.9,0.8
			c-0.2-0.3-0.4-0.5-0.7-0.6c-0.3-0.2-0.6-0.2-1-0.2c-0.4,0-0.7,0.1-0.9,0.2c-0.2,0.1-0.3,0.3-0.3,0.6c0,0.3,0.2,0.5,0.5,0.6
			c0.3,0.1,0.8,0.2,1.4,0.4c0.3,0.1,0.7,0.2,1.1,0.3c0.4,0.1,0.7,0.2,1,0.4c0.3,0.2,0.5,0.4,0.7,0.7c0.2,0.3,0.3,0.7,0.3,1.1
			c0,0.3-0.1,0.7-0.2,1c-0.1,0.3-0.4,0.6-0.7,0.9c-0.3,0.3-0.7,0.5-1.1,0.6C155.2,58.8,154.7,58.9,154.1,58.9z"/>
		<path class="st0" d="M163.2,58.9c-0.6,0-1.1-0.1-1.5-0.3c-0.5-0.2-0.8-0.6-1.1-1v1.2h-2.1V46.6h2.1v5c0.3-0.4,0.6-0.7,1.1-1
			c0.4-0.2,0.9-0.4,1.5-0.4c0.5,0,1,0.1,1.5,0.3c0.5,0.2,0.9,0.5,1.3,0.9c0.4,0.4,0.7,0.8,0.9,1.4c0.2,0.5,0.3,1.1,0.3,1.8
			c0,0.7-0.1,1.3-0.3,1.8c-0.2,0.5-0.5,1-0.9,1.4c-0.4,0.4-0.8,0.7-1.3,0.9C164.2,58.8,163.7,58.9,163.2,58.9z M162.8,56.9
			c0.3,0,0.6-0.1,0.9-0.2c0.3-0.1,0.5-0.3,0.7-0.5c0.2-0.2,0.4-0.5,0.5-0.7c0.1-0.3,0.2-0.6,0.2-0.9c0-0.3-0.1-0.6-0.2-0.9
			c-0.1-0.3-0.3-0.5-0.5-0.7c-0.2-0.2-0.5-0.4-0.7-0.5c-0.3-0.1-0.6-0.2-0.9-0.2c-0.3,0-0.6,0.1-0.9,0.2c-0.3,0.1-0.5,0.3-0.7,0.5
			c-0.2,0.2-0.4,0.5-0.5,0.7c-0.1,0.3-0.2,0.6-0.2,0.9c0,0.3,0.1,0.6,0.2,0.9c0.1,0.3,0.3,0.5,0.5,0.7c0.2,0.2,0.4,0.4,0.7,0.5
			C162.2,56.8,162.5,56.9,162.8,56.9z"/>
		<path class="st0" d="M172.3,58.9c-0.6,0-1.2-0.1-1.7-0.3c-0.5-0.2-1-0.5-1.4-0.9c-0.4-0.4-0.7-0.9-0.9-1.4
			c-0.2-0.5-0.3-1.1-0.3-1.7s0.1-1.2,0.3-1.7c0.2-0.5,0.5-1,0.9-1.4c0.4-0.4,0.9-0.7,1.4-0.9c0.5-0.2,1.1-0.3,1.7-0.3
			c0.6,0,1.2,0.1,1.7,0.3c0.5,0.2,1,0.5,1.4,0.9c0.4,0.4,0.7,0.8,0.9,1.4c0.2,0.5,0.3,1.1,0.3,1.7s-0.1,1.2-0.3,1.7
			c-0.2,0.5-0.5,1-0.9,1.4c-0.4,0.4-0.9,0.7-1.4,0.9C173.5,58.8,172.9,58.9,172.3,58.9z M172.3,56.9c0.3,0,0.6-0.1,0.9-0.2
			c0.3-0.1,0.5-0.3,0.7-0.5c0.2-0.2,0.4-0.4,0.5-0.7c0.1-0.3,0.2-0.6,0.2-0.9c0-0.3-0.1-0.6-0.2-0.9c-0.1-0.3-0.3-0.5-0.5-0.7
			c-0.2-0.2-0.4-0.4-0.7-0.5c-0.3-0.1-0.6-0.2-0.9-0.2c-0.3,0-0.6,0.1-0.9,0.2c-0.3,0.1-0.5,0.3-0.7,0.5c-0.2,0.2-0.4,0.5-0.5,0.7
			c-0.1,0.3-0.2,0.6-0.2,0.9c0,0.3,0.1,0.6,0.2,0.9c0.1,0.3,0.3,0.5,0.5,0.7c0.2,0.2,0.4,0.4,0.7,0.5
			C171.7,56.8,171.9,56.9,172.3,56.9z"/>
		<path class="st0" d="M177.6,50.4h2.1v1c0.3-0.4,0.6-0.7,1-0.9c0.4-0.2,0.9-0.3,1.4-0.3c1,0,1.8,0.3,2.3,0.9
			c0.6,0.6,0.9,1.5,0.9,2.5v5h-2.2V54c0-0.6-0.1-1.1-0.4-1.4c-0.3-0.3-0.7-0.5-1.3-0.5c-0.5,0-0.9,0.2-1.3,0.5
			c-0.3,0.4-0.5,0.9-0.5,1.5v4.6h-2.1V50.4z"/>
		<path class="st0" d="M193.9,58.9c-0.6,0-1.2-0.1-1.6-0.2c-0.5-0.1-0.9-0.3-1.3-0.5c-0.4-0.2-0.8-0.4-1.1-0.7
			c-0.3-0.3-0.6-0.6-0.9-0.9l1.9-1.5c0.4,0.6,0.8,1,1.3,1.3c0.5,0.3,1.1,0.4,1.8,0.4c0.6,0,1.1-0.1,1.4-0.4c0.3-0.3,0.5-0.6,0.5-1
			c0-0.3-0.1-0.5-0.2-0.6c-0.1-0.2-0.3-0.3-0.5-0.4c-0.2-0.1-0.5-0.2-0.8-0.3c-0.3-0.1-0.7-0.2-1.1-0.3c-0.4-0.1-0.8-0.2-1.3-0.3
			c-0.4-0.1-0.8-0.3-1.1-0.5c-0.3-0.2-0.6-0.5-0.8-0.9c-0.2-0.4-0.3-0.8-0.3-1.4c0-0.5,0.1-0.9,0.3-1.3c0.2-0.4,0.5-0.8,0.8-1.1
			c0.4-0.3,0.8-0.5,1.3-0.7c0.5-0.2,1-0.3,1.6-0.3c0.5,0,0.9,0,1.4,0.1c0.4,0.1,0.8,0.2,1.1,0.4c0.4,0.2,0.7,0.4,1,0.6
			c0.3,0.2,0.6,0.5,0.9,0.8l-1.8,1.4c-0.3-0.4-0.6-0.8-1.1-1c-0.4-0.3-0.9-0.4-1.6-0.4c-0.6,0-1.1,0.1-1.3,0.4
			c-0.3,0.3-0.4,0.6-0.4,0.9c0,0.2,0.1,0.4,0.2,0.6c0.1,0.1,0.3,0.3,0.5,0.4c0.2,0.1,0.5,0.2,0.8,0.3c0.3,0.1,0.6,0.1,1,0.2
			c0.4,0.1,0.9,0.2,1.3,0.3c0.4,0.1,0.8,0.3,1.2,0.6c0.4,0.2,0.6,0.6,0.9,1c0.2,0.4,0.3,0.9,0.3,1.5c0,0.5-0.1,0.9-0.3,1.4
			c-0.2,0.4-0.5,0.8-0.8,1.1c-0.4,0.3-0.8,0.6-1.3,0.8C195.1,58.8,194.5,58.9,193.9,58.9z"/>
		<path class="st0" d="M203.1,58.9c-0.6,0-1.2-0.1-1.7-0.3c-0.5-0.2-1-0.5-1.4-0.9c-0.4-0.4-0.7-0.8-0.9-1.4
			c-0.2-0.5-0.3-1.1-0.3-1.7c0-0.6,0.1-1.2,0.3-1.7c0.2-0.5,0.5-1,0.9-1.4c0.4-0.4,0.9-0.7,1.4-0.9c0.5-0.2,1.1-0.3,1.7-0.3
			c0.5,0,0.9,0.1,1.4,0.2c0.4,0.1,0.8,0.3,1.1,0.5c0.3,0.2,0.6,0.5,0.9,0.8c0.3,0.3,0.5,0.7,0.6,1.1l-2,0.8
			c-0.2-0.5-0.4-0.8-0.8-1.1c-0.4-0.3-0.8-0.4-1.3-0.4c-0.3,0-0.6,0.1-0.9,0.2c-0.3,0.1-0.5,0.3-0.7,0.5c-0.2,0.2-0.4,0.5-0.5,0.7
			c-0.1,0.3-0.2,0.6-0.2,0.9c0,0.3,0.1,0.6,0.2,0.9c0.1,0.3,0.3,0.5,0.5,0.7c0.2,0.2,0.5,0.4,0.7,0.5c0.3,0.1,0.6,0.2,0.9,0.2
			c0.5,0,0.9-0.1,1.3-0.4s0.6-0.6,0.8-1l2,0.8c-0.4,0.8-0.9,1.4-1.6,1.9C204.9,58.6,204,58.9,203.1,58.9z"/>
		<path class="st0" d="M207.9,46.6h2.1v4.8c0.3-0.4,0.6-0.7,1-0.9c0.4-0.2,0.9-0.3,1.4-0.3c0.5,0,0.9,0.1,1.3,0.2
			c0.4,0.2,0.7,0.4,1,0.7c0.3,0.3,0.5,0.7,0.6,1.1c0.2,0.4,0.2,0.9,0.2,1.5v5h-2.2V54c0-0.6-0.1-1.1-0.4-1.4
			c-0.3-0.3-0.7-0.5-1.3-0.5c-0.5,0-0.9,0.2-1.3,0.5c-0.3,0.4-0.5,0.9-0.5,1.5v4.6h-2.1V46.6z"/>
		<path class="st0" d="M220.9,58.9c-0.6,0-1.2-0.1-1.7-0.3c-0.5-0.2-1-0.5-1.4-0.9c-0.4-0.4-0.7-0.9-0.9-1.4
			c-0.2-0.5-0.3-1.1-0.3-1.7s0.1-1.2,0.3-1.7c0.2-0.5,0.5-1,0.9-1.4c0.4-0.4,0.9-0.7,1.4-0.9c0.5-0.2,1.1-0.3,1.7-0.3
			c0.6,0,1.2,0.1,1.7,0.3c0.5,0.2,1,0.5,1.4,0.9c0.4,0.4,0.7,0.8,0.9,1.4c0.2,0.5,0.3,1.1,0.3,1.7s-0.1,1.2-0.3,1.7
			c-0.2,0.5-0.5,1-0.9,1.4c-0.4,0.4-0.9,0.7-1.4,0.9C222.1,58.8,221.6,58.9,220.9,58.9z M220.9,56.9c0.3,0,0.6-0.1,0.9-0.2
			c0.3-0.1,0.5-0.3,0.7-0.5c0.2-0.2,0.4-0.4,0.5-0.7c0.1-0.3,0.2-0.6,0.2-0.9c0-0.3-0.1-0.6-0.2-0.9c-0.1-0.3-0.3-0.5-0.5-0.7
			c-0.2-0.2-0.4-0.4-0.7-0.5c-0.3-0.1-0.6-0.2-0.9-0.2c-0.3,0-0.6,0.1-0.9,0.2c-0.3,0.1-0.5,0.3-0.7,0.5c-0.2,0.2-0.4,0.5-0.5,0.7
			c-0.1,0.3-0.2,0.6-0.2,0.9c0,0.3,0.1,0.6,0.2,0.9c0.1,0.3,0.3,0.5,0.5,0.7c0.2,0.2,0.4,0.4,0.7,0.5
			C220.3,56.8,220.6,56.9,220.9,56.9z"/>
		<path class="st0" d="M230.4,58.9c-0.6,0-1.2-0.1-1.7-0.3c-0.5-0.2-1-0.5-1.4-0.9c-0.4-0.4-0.7-0.9-0.9-1.4
			c-0.2-0.5-0.3-1.1-0.3-1.7s0.1-1.2,0.3-1.7c0.2-0.5,0.5-1,0.9-1.4c0.4-0.4,0.9-0.7,1.4-0.9c0.5-0.2,1.1-0.3,1.7-0.3
			c0.6,0,1.2,0.1,1.7,0.3c0.5,0.2,1,0.5,1.4,0.9c0.4,0.4,0.7,0.8,0.9,1.4c0.2,0.5,0.3,1.1,0.3,1.7s-0.1,1.2-0.3,1.7
			c-0.2,0.5-0.5,1-0.9,1.4c-0.4,0.4-0.9,0.7-1.4,0.9C231.6,58.8,231,58.9,230.4,58.9z M230.4,56.9c0.3,0,0.6-0.1,0.9-0.2
			c0.3-0.1,0.5-0.3,0.7-0.5c0.2-0.2,0.4-0.4,0.5-0.7c0.1-0.3,0.2-0.6,0.2-0.9c0-0.3-0.1-0.6-0.2-0.9c-0.1-0.3-0.3-0.5-0.5-0.7
			c-0.2-0.2-0.4-0.4-0.7-0.5c-0.3-0.1-0.6-0.2-0.9-0.2c-0.3,0-0.6,0.1-0.9,0.2c-0.3,0.1-0.5,0.3-0.7,0.5c-0.2,0.2-0.4,0.5-0.5,0.7
			c-0.1,0.3-0.2,0.6-0.2,0.9c0,0.3,0.1,0.6,0.2,0.9c0.1,0.3,0.3,0.5,0.5,0.7c0.2,0.2,0.4,0.4,0.7,0.5
			C229.8,56.8,230.1,56.9,230.4,56.9z"/>
		<path class="st0" d="M235.7,46.6h2.1v12.1h-2.1V46.6z"/>
		<path class="st0" d="M143,73c-0.6,0-1.2-0.1-1.7-0.3c-0.5-0.2-1-0.5-1.4-0.9c-0.4-0.4-0.7-0.9-0.9-1.4c-0.2-0.5-0.3-1.1-0.3-1.7
			c0-0.6,0.1-1.2,0.3-1.7c0.2-0.5,0.5-1,0.9-1.4c0.4-0.4,0.9-0.7,1.4-0.9c0.5-0.2,1.1-0.3,1.7-0.3c0.6,0,1.2,0.1,1.7,0.3
			c0.5,0.2,1,0.5,1.4,0.9c0.4,0.4,0.7,0.8,0.9,1.4c0.2,0.5,0.3,1.1,0.3,1.7c0,0.6-0.1,1.2-0.3,1.7c-0.2,0.5-0.5,1-0.9,1.4
			c-0.4,0.4-0.9,0.7-1.4,0.9C144.2,72.9,143.6,73,143,73z M143,71c0.3,0,0.6-0.1,0.9-0.2c0.3-0.1,0.5-0.3,0.7-0.5
			c0.2-0.2,0.4-0.4,0.5-0.7c0.1-0.3,0.2-0.6,0.2-0.9c0-0.3-0.1-0.6-0.2-0.9c-0.1-0.3-0.3-0.5-0.5-0.7c-0.2-0.2-0.4-0.4-0.7-0.5
			c-0.3-0.1-0.6-0.2-0.9-0.2c-0.3,0-0.6,0.1-0.9,0.2c-0.3,0.1-0.5,0.3-0.7,0.5c-0.2,0.2-0.4,0.5-0.5,0.7c-0.1,0.3-0.2,0.6-0.2,0.9
			c0,0.3,0.1,0.6,0.2,0.9c0.1,0.3,0.3,0.5,0.5,0.7c0.2,0.2,0.4,0.4,0.7,0.5C142.4,71,142.7,71,143,71z"/>
		<path class="st0" d="M147.9,64.6h1.4v-0.3c0-0.7,0.1-1.2,0.2-1.7c0.1-0.5,0.3-0.8,0.6-1.1c0.3-0.3,0.6-0.5,1.1-0.6
			c0.5-0.1,1-0.2,1.7-0.2h0.6v1.9H153c-0.4,0-0.7,0-0.9,0.1c-0.2,0-0.4,0.1-0.5,0.2c-0.1,0.1-0.2,0.3-0.2,0.4c0,0.2,0,0.4,0,0.8v0.4
			h2v1.9h-2v6.4h-2.1v-6.4h-1.4V64.6z"/>
		<path class="st0" d="M157.5,61.7h7.5v2h-5.4v2.5h5.4v2h-5.4v2.5h5.4v2.1h-7.5V61.7z"/>
		<path class="st0" d="M170.4,73c-0.6,0-1.2-0.1-1.7-0.3c-0.5-0.2-1-0.5-1.4-0.9c-0.4-0.4-0.7-0.8-0.9-1.4c-0.2-0.5-0.3-1.1-0.3-1.7
			c0-0.6,0.1-1.2,0.3-1.7c0.2-0.5,0.5-1,0.9-1.4c0.4-0.4,0.9-0.7,1.4-0.9c0.5-0.2,1.1-0.3,1.7-0.3c0.5,0,0.9,0.1,1.4,0.2
			c0.4,0.1,0.8,0.3,1.1,0.5c0.3,0.2,0.6,0.5,0.9,0.8c0.3,0.3,0.5,0.7,0.6,1.1l-2,0.8c-0.2-0.5-0.4-0.8-0.8-1.1
			c-0.4-0.3-0.8-0.4-1.3-0.4c-0.3,0-0.6,0.1-0.9,0.2c-0.3,0.1-0.5,0.3-0.7,0.5c-0.2,0.2-0.4,0.5-0.5,0.7c-0.1,0.3-0.2,0.6-0.2,0.9
			c0,0.3,0.1,0.6,0.2,0.9c0.1,0.3,0.3,0.5,0.5,0.7c0.2,0.2,0.5,0.4,0.7,0.5c0.3,0.1,0.6,0.2,0.9,0.2c0.5,0,0.9-0.1,1.3-0.4
			s0.6-0.6,0.8-1l2,0.8c-0.4,0.8-0.9,1.4-1.6,1.9C172.2,72.8,171.4,73,170.4,73z"/>
		<path class="st0" d="M179.4,73c-0.6,0-1.2-0.1-1.7-0.3c-0.5-0.2-1-0.5-1.4-0.9c-0.4-0.4-0.7-0.9-0.9-1.4c-0.2-0.5-0.3-1.1-0.3-1.7
			c0-0.6,0.1-1.2,0.3-1.7c0.2-0.5,0.5-1,0.9-1.4c0.4-0.4,0.9-0.7,1.4-0.9c0.5-0.2,1.1-0.3,1.7-0.3c0.6,0,1.2,0.1,1.7,0.3
			c0.5,0.2,1,0.5,1.4,0.9c0.4,0.4,0.7,0.8,0.9,1.4c0.2,0.5,0.3,1.1,0.3,1.7c0,0.6-0.1,1.2-0.3,1.7c-0.2,0.5-0.5,1-0.9,1.4
			c-0.4,0.4-0.9,0.7-1.4,0.9C180.6,72.9,180,73,179.4,73z M179.4,71c0.3,0,0.6-0.1,0.9-0.2c0.3-0.1,0.5-0.3,0.7-0.5
			c0.2-0.2,0.4-0.4,0.5-0.7c0.1-0.3,0.2-0.6,0.2-0.9c0-0.3-0.1-0.6-0.2-0.9c-0.1-0.3-0.3-0.5-0.5-0.7c-0.2-0.2-0.4-0.4-0.7-0.5
			c-0.3-0.1-0.6-0.2-0.9-0.2c-0.3,0-0.6,0.1-0.9,0.2c-0.3,0.1-0.5,0.3-0.7,0.5c-0.2,0.2-0.4,0.5-0.5,0.7c-0.1,0.3-0.2,0.6-0.2,0.9
			c0,0.3,0.1,0.6,0.2,0.9c0.1,0.3,0.3,0.5,0.5,0.7c0.2,0.2,0.4,0.4,0.7,0.5C178.8,71,179.1,71,179.4,71z"/>
		<path class="st0" d="M184.7,64.6h2.1v1c0.3-0.4,0.6-0.7,1-0.9c0.4-0.2,0.9-0.3,1.4-0.3c1,0,1.8,0.3,2.3,0.9
			c0.6,0.6,0.9,1.5,0.9,2.5v5h-2.2v-4.7c0-0.6-0.1-1.1-0.4-1.4c-0.3-0.3-0.7-0.5-1.3-0.5c-0.5,0-0.9,0.2-1.3,0.5
			c-0.3,0.4-0.5,0.9-0.5,1.5v4.6h-2.1V64.6z"/>
		<path class="st0" d="M197.7,73c-0.6,0-1.2-0.1-1.7-0.3c-0.5-0.2-1-0.5-1.4-0.9c-0.4-0.4-0.7-0.9-0.9-1.4c-0.2-0.5-0.3-1.1-0.3-1.7
			c0-0.6,0.1-1.2,0.3-1.7c0.2-0.5,0.5-1,0.9-1.4c0.4-0.4,0.9-0.7,1.4-0.9c0.5-0.2,1.1-0.3,1.7-0.3c0.6,0,1.2,0.1,1.7,0.3
			c0.5,0.2,1,0.5,1.4,0.9c0.4,0.4,0.7,0.8,0.9,1.4c0.2,0.5,0.3,1.1,0.3,1.7c0,0.6-0.1,1.2-0.3,1.7c-0.2,0.5-0.5,1-0.9,1.4
			c-0.4,0.4-0.9,0.7-1.4,0.9C198.9,72.9,198.4,73,197.7,73z M197.7,71c0.3,0,0.6-0.1,0.9-0.2c0.3-0.1,0.5-0.3,0.7-0.5
			c0.2-0.2,0.4-0.4,0.5-0.7c0.1-0.3,0.2-0.6,0.2-0.9c0-0.3-0.1-0.6-0.2-0.9c-0.1-0.3-0.3-0.5-0.5-0.7c-0.2-0.2-0.4-0.4-0.7-0.5
			c-0.3-0.1-0.6-0.2-0.9-0.2c-0.3,0-0.6,0.1-0.9,0.2c-0.3,0.1-0.5,0.3-0.7,0.5c-0.2,0.2-0.4,0.5-0.5,0.7c-0.1,0.3-0.2,0.6-0.2,0.9
			c0,0.3,0.1,0.6,0.2,0.9c0.1,0.3,0.3,0.5,0.5,0.7c0.2,0.2,0.4,0.4,0.7,0.5C197.1,71,197.4,71,197.7,71z"/>
		<path class="st0" d="M203.1,64.6h2.1v1c0.3-0.4,0.6-0.6,1-0.8c0.4-0.2,0.8-0.3,1.3-0.3c0.6,0,1.1,0.1,1.6,0.4c0.4,0.2,0.7,0.6,1,1
			c0.3-0.4,0.6-0.8,1.1-1c0.4-0.3,1-0.4,1.5-0.4c1.1,0,1.8,0.3,2.4,0.9c0.5,0.6,0.8,1.4,0.8,2.5v5.1h-2.2v-4.8c0-0.6-0.1-1-0.4-1.3
			c-0.2-0.3-0.6-0.5-1.2-0.5c-0.5,0-0.9,0.2-1.2,0.5c-0.3,0.3-0.4,0.8-0.4,1.5v4.7h-2.2V68c0-0.6-0.1-1-0.4-1.3
			c-0.2-0.3-0.6-0.5-1.1-0.5c-0.5,0-0.9,0.2-1.2,0.5c-0.3,0.3-0.4,0.8-0.4,1.5v4.6h-2.1V64.6z"/>
		<path class="st0" d="M216.7,62.2c0-0.4,0.1-0.7,0.4-1c0.3-0.3,0.6-0.4,1-0.4c0.4,0,0.7,0.1,1,0.4c0.3,0.3,0.4,0.6,0.4,1
			c0,0.4-0.1,0.7-0.4,1c-0.3,0.3-0.6,0.4-1,0.4c-0.4,0-0.7-0.1-1-0.4C216.8,63,216.7,62.6,216.7,62.2z M216.9,64.6h2.2v8.3h-2.2
			V64.6z"/>
		<path class="st0" d="M224.4,73c-0.6,0-1.2-0.1-1.7-0.3c-0.5-0.2-1-0.5-1.4-0.9c-0.4-0.4-0.7-0.8-0.9-1.4c-0.2-0.5-0.3-1.1-0.3-1.7
			c0-0.6,0.1-1.2,0.3-1.7c0.2-0.5,0.5-1,0.9-1.4c0.4-0.4,0.9-0.7,1.4-0.9c0.5-0.2,1.1-0.3,1.7-0.3c0.5,0,0.9,0.1,1.4,0.2
			c0.4,0.1,0.8,0.3,1.1,0.5c0.3,0.2,0.6,0.5,0.9,0.8c0.3,0.3,0.5,0.7,0.6,1.1l-2,0.8c-0.2-0.5-0.4-0.8-0.8-1.1
			c-0.4-0.3-0.8-0.4-1.3-0.4c-0.3,0-0.6,0.1-0.9,0.2c-0.3,0.1-0.5,0.3-0.7,0.5c-0.2,0.2-0.4,0.5-0.5,0.7c-0.1,0.3-0.2,0.6-0.2,0.9
			c0,0.3,0.1,0.6,0.2,0.9c0.1,0.3,0.3,0.5,0.5,0.7c0.2,0.2,0.5,0.4,0.7,0.5c0.3,0.1,0.6,0.2,0.9,0.2c0.5,0,0.9-0.1,1.3-0.4
			s0.6-0.6,0.8-1l2,0.8c-0.4,0.8-0.9,1.4-1.6,1.9C226.2,72.8,225.4,73,224.4,73z"/>
		<path class="st0" d="M232.6,73c-1,0-1.8-0.2-2.4-0.5c-0.6-0.4-1.1-0.9-1.4-1.5l2-0.8c0.4,0.7,1,1.1,1.9,1.1c0.4,0,0.8-0.1,1-0.3
			c0.2-0.2,0.3-0.4,0.3-0.6c0-0.2-0.1-0.3-0.2-0.4c-0.1-0.1-0.2-0.2-0.4-0.2c-0.2-0.1-0.4-0.1-0.6-0.2c-0.2-0.1-0.5-0.1-0.8-0.2
			c-0.3-0.1-0.7-0.2-1.1-0.3c-0.4-0.1-0.7-0.2-1-0.4c-0.3-0.2-0.5-0.4-0.7-0.7c-0.2-0.3-0.3-0.6-0.3-1.1c0-0.3,0.1-0.7,0.2-1
			c0.2-0.3,0.4-0.6,0.7-0.8c0.3-0.2,0.7-0.4,1.1-0.6c0.4-0.1,0.9-0.2,1.4-0.2c0.9,0,1.6,0.2,2.1,0.5c0.6,0.3,1,0.7,1.4,1.3l-1.9,0.8
			c-0.2-0.3-0.4-0.5-0.7-0.6c-0.3-0.2-0.6-0.2-1-0.2c-0.4,0-0.7,0.1-0.9,0.2c-0.2,0.1-0.3,0.3-0.3,0.6c0,0.3,0.2,0.5,0.5,0.6
			c0.3,0.1,0.8,0.2,1.4,0.4c0.3,0.1,0.7,0.2,1.1,0.3c0.4,0.1,0.7,0.2,1,0.4c0.3,0.2,0.5,0.4,0.7,0.7c0.2,0.3,0.3,0.7,0.3,1.1
			c0,0.3-0.1,0.7-0.2,1c-0.1,0.3-0.4,0.6-0.7,0.9c-0.3,0.3-0.7,0.5-1.1,0.6C233.7,73,233.2,73,232.6,73z"/>
		<path class="st0" d="M142.2,87.2c-0.5,0-1-0.1-1.4-0.2s-0.8-0.4-1.1-0.6c-0.3-0.3-0.5-0.6-0.7-1c-0.2-0.4-0.2-0.8-0.2-1.3
			c0-0.4,0.1-0.7,0.2-1.1c0.1-0.3,0.3-0.6,0.5-0.9c0.2-0.3,0.5-0.5,0.8-0.7c0.3-0.2,0.6-0.4,0.9-0.6c-0.4-0.4-0.6-0.8-0.8-1.2
			c-0.2-0.4-0.3-0.8-0.3-1.3c0-0.4,0.1-0.7,0.2-1.1c0.1-0.3,0.3-0.6,0.6-0.9c0.3-0.3,0.6-0.5,1-0.6c0.4-0.1,0.8-0.2,1.3-0.2
			c0.5,0,0.9,0.1,1.2,0.2c0.4,0.1,0.7,0.3,0.9,0.6c0.3,0.2,0.5,0.5,0.6,0.9c0.1,0.3,0.2,0.7,0.2,1c0,0.3-0.1,0.6-0.2,0.9
			c-0.1,0.3-0.3,0.5-0.4,0.7c-0.2,0.2-0.4,0.4-0.6,0.6c-0.2,0.2-0.5,0.4-0.8,0.6l1.5,1.5l1.9-2.4h2.5l-3,3.7l3.2,3.1h-2.9l-1.6-1.6
			c-0.3,0.3-0.6,0.6-0.9,0.8c-0.3,0.2-0.6,0.4-0.9,0.5c-0.3,0.1-0.6,0.2-0.9,0.3C142.9,87.1,142.5,87.2,142.2,87.2z M142.3,85.2
			c0.3,0,0.7-0.1,1-0.2c0.3-0.2,0.7-0.5,1.1-0.9l-2-2c-0.4,0.3-0.8,0.5-1.1,0.8c-0.3,0.3-0.4,0.6-0.4,1c0,0.4,0.1,0.7,0.4,1
			C141.6,85.1,141.9,85.2,142.3,85.2z M142.1,78.3c0,0.3,0.1,0.5,0.2,0.8c0.1,0.2,0.3,0.5,0.6,0.8c0.4-0.2,0.7-0.5,0.9-0.7
			c0.2-0.2,0.3-0.5,0.3-0.8c0-0.3-0.1-0.5-0.3-0.7c-0.2-0.2-0.4-0.3-0.7-0.3c-0.3,0-0.6,0.1-0.7,0.3
			C142.2,77.8,142.1,78.1,142.1,78.3z"/>
		<path class="st0" d="M154,75.8h2.1l3.3,4.6l3.5-4.6h2V87h-2.1v-7.9l-3.4,4.5l-3.3-4.4V87H154V75.8z"/>
		<path class="st0" d="M168.9,87.2c-0.9,0-1.6-0.2-2.1-0.7c-0.5-0.5-0.8-1.1-0.8-1.8c0-0.9,0.3-1.6,1-2c0.7-0.5,1.6-0.7,2.7-0.7h2.2
			v-0.1c0-0.5-0.1-0.8-0.4-1.1c-0.3-0.3-0.7-0.4-1.4-0.4c-0.5,0-0.9,0.1-1.2,0.3c-0.3,0.2-0.6,0.5-0.8,0.8l-2-1
			c0.4-0.6,0.9-1,1.6-1.4c0.6-0.4,1.4-0.5,2.3-0.5c1.2,0,2.2,0.3,2.8,0.9c0.7,0.6,1,1.4,1,2.5V87h-2v-1.3c-0.3,0.4-0.7,0.8-1.3,1
			C170.1,87.1,169.5,87.2,168.9,87.2z M169.5,85.4c0.3,0,0.5,0,0.8-0.1c0.2-0.1,0.5-0.2,0.7-0.3c0.2-0.1,0.4-0.3,0.6-0.5
			c0.2-0.2,0.3-0.4,0.4-0.6v-0.4h-2c-0.6,0-1.1,0.1-1.4,0.3c-0.3,0.2-0.4,0.4-0.4,0.8C168.2,85.1,168.6,85.4,169.5,85.4z"/>
		<path class="st0" d="M175.1,78.7h2.1v1c0.3-0.4,0.6-0.7,1-0.9c0.4-0.2,0.9-0.3,1.4-0.3c1,0,1.8,0.3,2.3,0.9
			c0.6,0.6,0.9,1.5,0.9,2.5v5h-2.2v-4.7c0-0.6-0.1-1.1-0.4-1.4c-0.3-0.3-0.7-0.5-1.3-0.5c-0.5,0-0.9,0.2-1.3,0.5
			c-0.3,0.4-0.5,0.9-0.5,1.5V87h-2.1V78.7z"/>
		<path class="st0" d="M186.6,87.2c-0.9,0-1.6-0.2-2.1-0.7c-0.5-0.5-0.8-1.1-0.8-1.8c0-0.9,0.3-1.6,1-2c0.7-0.5,1.6-0.7,2.7-0.7h2.2
			v-0.1c0-0.5-0.1-0.8-0.4-1.1c-0.3-0.3-0.7-0.4-1.4-0.4c-0.5,0-0.9,0.1-1.2,0.3c-0.3,0.2-0.6,0.5-0.8,0.8l-2-1
			c0.4-0.6,0.9-1,1.6-1.4c0.6-0.4,1.4-0.5,2.3-0.5c1.2,0,2.2,0.3,2.8,0.9c0.7,0.6,1,1.4,1,2.5V87h-2v-1.3c-0.3,0.4-0.7,0.8-1.3,1
			C187.9,87.1,187.3,87.2,186.6,87.2z M187.2,85.4c0.3,0,0.5,0,0.8-0.1c0.2-0.1,0.5-0.2,0.7-0.3c0.2-0.1,0.4-0.3,0.6-0.5
			c0.2-0.2,0.3-0.4,0.4-0.6v-0.4h-2c-0.6,0-1.1,0.1-1.4,0.3c-0.3,0.2-0.4,0.4-0.4,0.8C185.9,85.1,186.4,85.4,187.2,85.4z"/>
		<path class="st0" d="M196.6,87.1c-0.5,0-1-0.1-1.5-0.3c-0.5-0.2-0.9-0.5-1.3-0.9c-0.4-0.4-0.7-0.8-0.9-1.4
			c-0.2-0.5-0.3-1.1-0.3-1.8c0-0.7,0.1-1.2,0.3-1.8c0.2-0.5,0.5-1,0.9-1.4c0.4-0.4,0.8-0.7,1.3-0.9c0.5-0.2,1-0.3,1.5-0.3
			c0.6,0,1.1,0.1,1.5,0.3c0.4,0.2,0.8,0.5,1.1,0.9v-1.1h2.1v7.7c0,0.6-0.1,1.2-0.3,1.7c-0.2,0.5-0.5,0.9-0.9,1.3
			c-0.4,0.4-0.8,0.7-1.4,0.9c-0.5,0.2-1.1,0.3-1.8,0.3c-1,0-1.8-0.1-2.4-0.4c-0.6-0.3-1.2-0.7-1.7-1.2l1.8-1.4
			c0.3,0.4,0.6,0.6,0.9,0.8c0.3,0.2,0.8,0.3,1.3,0.3c0.3,0,0.6-0.1,0.9-0.2c0.3-0.1,0.5-0.3,0.7-0.5c0.2-0.2,0.4-0.4,0.5-0.7
			c0.1-0.3,0.2-0.6,0.2-0.9v-0.6c-0.3,0.4-0.7,0.7-1.1,1C197.6,87,197.1,87.1,196.6,87.1z M197,85.2c0.3,0,0.6-0.1,0.9-0.2
			c0.3-0.1,0.5-0.3,0.7-0.5c0.2-0.2,0.4-0.5,0.5-0.7c0.1-0.3,0.2-0.6,0.2-0.9c0-0.3-0.1-0.6-0.2-0.9c-0.1-0.3-0.3-0.5-0.5-0.7
			c-0.2-0.2-0.4-0.4-0.7-0.5c-0.3-0.1-0.6-0.2-0.9-0.2c-0.3,0-0.6,0.1-0.9,0.2c-0.3,0.1-0.5,0.3-0.7,0.5c-0.2,0.2-0.4,0.5-0.5,0.7
			s-0.2,0.6-0.2,0.9c0,0.3,0.1,0.6,0.2,0.9c0.1,0.3,0.3,0.5,0.5,0.7c0.2,0.2,0.4,0.4,0.7,0.5C196.4,85.1,196.7,85.2,197,85.2z"/>
		<path class="st0" d="M206.7,87.2c-0.7,0-1.3-0.1-1.8-0.3c-0.5-0.2-1-0.5-1.4-0.9c-0.4-0.4-0.7-0.8-0.9-1.4
			c-0.2-0.5-0.3-1.1-0.3-1.7c0-0.6,0.1-1.2,0.3-1.7c0.2-0.5,0.5-1,0.9-1.4c0.4-0.4,0.8-0.7,1.4-0.9c0.5-0.2,1.1-0.3,1.7-0.3
			c0.6,0,1.2,0.1,1.7,0.3c0.5,0.2,1,0.5,1.4,0.9c0.4,0.4,0.7,0.8,0.9,1.3c0.2,0.5,0.3,1.1,0.3,1.7v0.8h-6.6c0.1,0.5,0.4,1,0.8,1.3
			c0.4,0.3,0.9,0.5,1.5,0.5c0.5,0,0.9-0.1,1.2-0.3c0.3-0.2,0.6-0.5,0.8-0.8l1.7,1c-0.4,0.6-0.9,1-1.5,1.4
			C208.3,87,207.6,87.2,206.7,87.2z M206.6,80.4c-0.5,0-1,0.1-1.4,0.4c-0.4,0.3-0.7,0.7-0.8,1.2h4.4c-0.1-0.5-0.4-0.9-0.8-1.2
			C207.6,80.5,207.2,80.4,206.6,80.4z"/>
		<path class="st0" d="M211.8,78.7h2.1v1c0.3-0.4,0.6-0.6,1-0.8c0.4-0.2,0.8-0.3,1.3-0.3c0.6,0,1.1,0.1,1.6,0.4c0.4,0.2,0.7,0.6,1,1
			c0.3-0.4,0.6-0.8,1.1-1c0.4-0.3,1-0.4,1.5-0.4c1.1,0,1.8,0.3,2.4,0.9c0.5,0.6,0.8,1.4,0.8,2.5V87h-2.2v-4.8c0-0.6-0.1-1-0.4-1.3
			c-0.2-0.3-0.6-0.5-1.2-0.5c-0.5,0-0.9,0.2-1.2,0.5c-0.3,0.3-0.4,0.8-0.4,1.5V87h-2.2v-4.9c0-0.6-0.1-1-0.4-1.3
			c-0.2-0.3-0.6-0.5-1.1-0.5c-0.5,0-0.9,0.2-1.2,0.5c-0.3,0.3-0.4,0.8-0.4,1.5V87h-2.1V78.7z"/>
		<path class="st0" d="M229.9,87.2c-0.7,0-1.3-0.1-1.8-0.3c-0.5-0.2-1-0.5-1.4-0.9c-0.4-0.4-0.7-0.8-0.9-1.4
			c-0.2-0.5-0.3-1.1-0.3-1.7c0-0.6,0.1-1.2,0.3-1.7c0.2-0.5,0.5-1,0.9-1.4c0.4-0.4,0.8-0.7,1.4-0.9c0.5-0.2,1.1-0.3,1.7-0.3
			c0.6,0,1.2,0.1,1.7,0.3c0.5,0.2,1,0.5,1.4,0.9c0.4,0.4,0.7,0.8,0.9,1.3c0.2,0.5,0.3,1.1,0.3,1.7v0.8h-6.6c0.1,0.5,0.4,1,0.8,1.3
			c0.4,0.3,0.9,0.5,1.5,0.5c0.5,0,0.9-0.1,1.2-0.3c0.3-0.2,0.6-0.5,0.8-0.8l1.7,1c-0.4,0.6-0.9,1-1.5,1.4
			C231.5,87,230.8,87.2,229.9,87.2z M229.8,80.4c-0.5,0-1,0.1-1.4,0.4c-0.4,0.3-0.7,0.7-0.8,1.2h4.4c-0.1-0.5-0.4-0.9-0.8-1.2
			C230.8,80.5,230.4,80.4,229.8,80.4z"/>
		<path class="st0" d="M235,78.7h2.1v1c0.3-0.4,0.6-0.7,1-0.9c0.4-0.2,0.9-0.3,1.4-0.3c1,0,1.8,0.3,2.3,0.9c0.6,0.6,0.9,1.5,0.9,2.5
			v5h-2.2v-4.7c0-0.6-0.1-1.1-0.4-1.4c-0.3-0.3-0.7-0.5-1.3-0.5c-0.5,0-0.9,0.2-1.3,0.5c-0.3,0.4-0.5,0.9-0.5,1.5V87H235V78.7z"/>
		<path class="st0" d="M243.5,78.7h1.5v-1.8l2.1-1.2v3h2.2v1.9h-2.2V84c0,0.4,0.1,0.7,0.3,0.9c0.2,0.2,0.4,0.3,0.7,0.3
			c0.3,0,0.5-0.1,0.8-0.3l1,1.7c-0.3,0.2-0.6,0.4-0.9,0.5c-0.3,0.1-0.7,0.2-1.1,0.2c-0.9,0-1.5-0.2-2-0.7c-0.5-0.5-0.7-1.3-0.7-2.4
			v-3.5h-1.5V78.7z"/>
		<path class="st0" d="M141.8,102.2c-0.4,0-0.8-0.1-1.2-0.2c-0.3-0.1-0.6-0.3-0.9-0.6c-0.2-0.2-0.4-0.5-0.6-0.9
			c-0.1-0.3-0.2-0.7-0.2-1.1v-4.7h0.6v4.7c0,0.3,0.1,0.6,0.2,0.9c0.1,0.3,0.2,0.5,0.4,0.7c0.2,0.2,0.4,0.4,0.7,0.5s0.6,0.2,0.9,0.2
			c0.3,0,0.6-0.1,0.9-0.2c0.3-0.1,0.5-0.2,0.7-0.4c0.2-0.2,0.3-0.4,0.5-0.7c0.1-0.3,0.2-0.6,0.2-1v-4.7h0.6v4.6
			c0,0.4-0.1,0.8-0.2,1.2c-0.1,0.4-0.3,0.6-0.6,0.9c-0.2,0.2-0.5,0.4-0.9,0.6C142.6,102.1,142.2,102.2,141.8,102.2z"/>
		<path class="st0" d="M146,96.6h0.5v1.1c0.2-0.3,0.5-0.6,0.8-0.9c0.4-0.2,0.8-0.3,1.3-0.3c0.4,0,0.7,0.1,1,0.2
			c0.3,0.1,0.5,0.3,0.8,0.5c0.2,0.2,0.4,0.5,0.5,0.8c0.1,0.3,0.2,0.7,0.2,1v3h-0.6v-3c0-0.6-0.2-1.1-0.5-1.4
			c-0.3-0.4-0.8-0.5-1.4-0.5c-0.3,0-0.5,0.1-0.8,0.2c-0.2,0.1-0.4,0.2-0.6,0.4c-0.2,0.2-0.3,0.4-0.4,0.6c-0.1,0.2-0.2,0.5-0.2,0.8v3
			H146V96.6z"/>
		<path class="st0" d="M152,94.9c0-0.1,0.1-0.3,0.2-0.4c0.1-0.1,0.2-0.2,0.4-0.2c0.2,0,0.3,0.1,0.4,0.2c0.1,0.1,0.2,0.2,0.2,0.4
			c0,0.2-0.1,0.3-0.2,0.4c-0.1,0.1-0.2,0.2-0.4,0.2c-0.2,0-0.3-0.1-0.4-0.2C152,95.2,152,95.1,152,94.9z M152.2,96.6h0.6v5.5h-0.6
			V96.6z"/>
		<path class="st0" d="M153.5,96.6h0.6l1.9,4.8l2-4.8h0.6l-2.3,5.5h-0.6L153.5,96.6z"/>
		<path class="st0" d="M162,102.2c-0.4,0-0.8-0.1-1.2-0.2c-0.4-0.1-0.7-0.3-0.9-0.6c-0.2-0.3-0.4-0.5-0.6-0.9
			c-0.1-0.3-0.2-0.7-0.2-1.1c0-0.4,0.1-0.8,0.2-1.1c0.1-0.3,0.3-0.7,0.6-0.9c0.3-0.3,0.6-0.5,0.9-0.6c0.3-0.1,0.7-0.2,1.2-0.2
			c0.4,0,0.8,0.1,1.1,0.2c0.3,0.1,0.6,0.3,0.9,0.6c0.2,0.2,0.4,0.5,0.6,0.9c0.1,0.3,0.2,0.7,0.2,1.1v0.3h-5.1c0,0.3,0.1,0.6,0.2,0.8
			c0.1,0.3,0.3,0.5,0.5,0.7c0.2,0.2,0.4,0.3,0.7,0.4c0.3,0.1,0.6,0.2,0.9,0.2c0.5,0,0.9-0.1,1.2-0.3c0.3-0.2,0.6-0.5,0.8-0.9
			l0.5,0.3c-0.3,0.5-0.7,0.8-1.1,1.1C163.1,102.1,162.6,102.2,162,102.2z M162,97c-0.3,0-0.6,0.1-0.8,0.2c-0.3,0.1-0.5,0.2-0.7,0.4
			c-0.2,0.2-0.4,0.4-0.5,0.6c-0.1,0.2-0.2,0.5-0.3,0.8h4.4c0-0.3-0.1-0.6-0.2-0.8c-0.1-0.2-0.3-0.5-0.4-0.6
			c-0.2-0.2-0.4-0.3-0.7-0.4C162.6,97.1,162.3,97,162,97z"/>
		<path class="st0" d="M165.8,96.6h0.5v1.1c0.1-0.4,0.3-0.7,0.6-0.9c0.3-0.2,0.6-0.3,1.1-0.3c0.4,0,0.7,0.1,0.9,0.2l-0.3,0.5
			c-0.1-0.1-0.2-0.1-0.3-0.1c-0.1,0-0.2-0.1-0.4-0.1c-0.5,0-0.9,0.2-1.2,0.5c-0.3,0.3-0.4,0.9-0.4,1.6v2.9h-0.6V96.6z"/>
		<path class="st0" d="M171.5,102.2c-0.6,0-1.1-0.1-1.5-0.3c-0.4-0.2-0.7-0.5-1-0.8l0.5-0.4c0.2,0.3,0.5,0.5,0.8,0.7
			c0.3,0.2,0.7,0.3,1.2,0.3c0.5,0,0.9-0.1,1.1-0.3c0.3-0.2,0.4-0.5,0.4-0.8c0-0.2,0-0.3-0.1-0.4c-0.1-0.1-0.2-0.2-0.4-0.3
			c-0.2-0.1-0.3-0.1-0.5-0.2c-0.2,0-0.4-0.1-0.6-0.1c-0.2,0-0.5-0.1-0.7-0.1c-0.2-0.1-0.4-0.1-0.6-0.2c-0.2-0.1-0.3-0.2-0.5-0.4
			c-0.1-0.2-0.2-0.4-0.2-0.7c0-0.2,0-0.4,0.1-0.6c0.1-0.2,0.2-0.4,0.4-0.5c0.2-0.1,0.4-0.3,0.6-0.3c0.2-0.1,0.5-0.1,0.9-0.1
			c0.5,0,0.9,0.1,1.3,0.3c0.3,0.2,0.6,0.4,0.9,0.7l-0.4,0.4c-0.2-0.2-0.4-0.4-0.7-0.6c-0.3-0.2-0.6-0.2-1-0.2
			c-0.5,0-0.8,0.1-1.1,0.3c-0.2,0.2-0.3,0.4-0.3,0.8c0,0.2,0,0.3,0.1,0.4c0.1,0.1,0.2,0.2,0.4,0.3c0.2,0.1,0.3,0.1,0.5,0.2
			c0.2,0,0.4,0.1,0.6,0.1c0.2,0,0.5,0.1,0.7,0.1c0.2,0.1,0.5,0.1,0.6,0.2c0.2,0.1,0.3,0.2,0.5,0.4c0.1,0.2,0.2,0.4,0.2,0.7
			c0,0.2,0,0.4-0.1,0.6s-0.2,0.4-0.4,0.5c-0.2,0.1-0.4,0.3-0.7,0.4C172.2,102.2,171.9,102.2,171.5,102.2z"/>
		<path class="st0" d="M174.3,94.9c0-0.1,0.1-0.3,0.2-0.4c0.1-0.1,0.2-0.2,0.4-0.2c0.2,0,0.3,0.1,0.4,0.2c0.1,0.1,0.2,0.2,0.2,0.4
			c0,0.2-0.1,0.3-0.2,0.4c-0.1,0.1-0.2,0.2-0.4,0.2c-0.2,0-0.3-0.1-0.4-0.2C174.3,95.2,174.3,95.1,174.3,94.9z M174.5,96.6h0.6v5.5
			h-0.6V96.6z"/>
		<path class="st0" d="M179,102.2c-0.4,0-0.8-0.1-1.1-0.2c-0.3-0.1-0.6-0.3-0.9-0.6c-0.2-0.3-0.4-0.6-0.6-0.9
			c-0.1-0.3-0.2-0.7-0.2-1.1c0-0.4,0.1-0.8,0.2-1.1c0.1-0.3,0.3-0.6,0.6-0.9c0.3-0.3,0.5-0.5,0.9-0.6c0.3-0.1,0.7-0.2,1.1-0.2
			c0.2,0,0.4,0,0.6,0.1c0.2,0.1,0.4,0.1,0.6,0.2c0.2,0.1,0.4,0.2,0.5,0.4c0.2,0.2,0.3,0.3,0.4,0.5v-3.7h0.6v8h-0.6v-1.2
			c-0.1,0.2-0.3,0.4-0.4,0.5c-0.2,0.2-0.3,0.3-0.5,0.4c-0.2,0.1-0.4,0.2-0.6,0.2C179.4,102.2,179.2,102.2,179,102.2z M179,101.6
			c0.3,0,0.6-0.1,0.9-0.2c0.3-0.1,0.5-0.3,0.7-0.5c0.2-0.2,0.4-0.5,0.5-0.7c0.1-0.3,0.2-0.6,0.2-0.9s-0.1-0.6-0.2-0.9
			c-0.1-0.3-0.3-0.5-0.5-0.7c-0.2-0.2-0.4-0.4-0.7-0.5c-0.3-0.1-0.6-0.2-0.9-0.2c-0.3,0-0.6,0.1-0.9,0.2c-0.3,0.1-0.5,0.3-0.7,0.5
			c-0.2,0.2-0.4,0.4-0.5,0.7c-0.1,0.3-0.2,0.6-0.2,0.9c0,0.3,0.1,0.6,0.2,0.9c0.1,0.3,0.3,0.5,0.5,0.7c0.2,0.2,0.4,0.4,0.7,0.5
			C178.4,101.6,178.6,101.6,179,101.6z"/>
		<path class="st0" d="M184.6,102.2c-0.3,0-0.6,0-0.9-0.1c-0.2-0.1-0.4-0.2-0.6-0.3c-0.2-0.1-0.3-0.3-0.4-0.5
			c-0.1-0.2-0.1-0.4-0.1-0.6c0-0.3,0.1-0.5,0.2-0.7c0.1-0.2,0.3-0.4,0.5-0.5c0.2-0.1,0.5-0.3,0.8-0.3c0.3-0.1,0.7-0.1,1-0.1h1.8
			v-0.3c0-0.5-0.2-0.8-0.5-1.1c-0.3-0.3-0.7-0.4-1.3-0.4c-0.5,0-0.8,0.1-1.1,0.2c-0.3,0.2-0.6,0.4-0.8,0.7l-0.5-0.4
			c0.3-0.3,0.6-0.6,1-0.8c0.4-0.2,0.8-0.3,1.4-0.3c0.4,0,0.7,0.1,1,0.2c0.3,0.1,0.5,0.2,0.7,0.4c0.2,0.2,0.3,0.4,0.4,0.6
			c0.1,0.2,0.1,0.5,0.1,0.8v3.6H187v-1c-0.3,0.3-0.6,0.6-1,0.8C185.5,102.1,185.1,102.2,184.6,102.2z M184.7,101.7
			c0.2,0,0.4,0,0.7-0.1c0.2-0.1,0.4-0.1,0.6-0.2c0.2-0.1,0.4-0.2,0.6-0.4c0.2-0.2,0.3-0.4,0.5-0.6v-1h-1.8c-0.6,0-1.1,0.1-1.4,0.3
			c-0.3,0.2-0.5,0.5-0.5,0.9c0,0.2,0,0.3,0.1,0.4c0.1,0.1,0.1,0.3,0.3,0.4c0.1,0.1,0.3,0.2,0.4,0.2
			C184.2,101.7,184.4,101.7,184.7,101.7z"/>
		<path class="st0" d="M191.4,102.2c-0.4,0-0.8-0.1-1.1-0.2c-0.3-0.1-0.6-0.3-0.9-0.6c-0.2-0.3-0.4-0.6-0.6-0.9
			c-0.1-0.3-0.2-0.7-0.2-1.1c0-0.4,0.1-0.8,0.2-1.1c0.1-0.3,0.3-0.6,0.6-0.9c0.3-0.3,0.5-0.5,0.9-0.6c0.3-0.1,0.7-0.2,1.1-0.2
			c0.2,0,0.4,0,0.6,0.1c0.2,0.1,0.4,0.1,0.6,0.2c0.2,0.1,0.4,0.2,0.5,0.4c0.2,0.2,0.3,0.3,0.4,0.5v-3.7h0.6v8h-0.6v-1.2
			c-0.1,0.2-0.3,0.4-0.4,0.5c-0.2,0.2-0.3,0.3-0.5,0.4c-0.2,0.1-0.4,0.2-0.6,0.2C191.8,102.2,191.6,102.2,191.4,102.2z M191.4,101.6
			c0.3,0,0.6-0.1,0.9-0.2c0.3-0.1,0.5-0.3,0.7-0.5c0.2-0.2,0.4-0.5,0.5-0.7c0.1-0.3,0.2-0.6,0.2-0.9s-0.1-0.6-0.2-0.9
			c-0.1-0.3-0.3-0.5-0.5-0.7c-0.2-0.2-0.4-0.4-0.7-0.5c-0.3-0.1-0.6-0.2-0.9-0.2c-0.3,0-0.6,0.1-0.9,0.2c-0.3,0.1-0.5,0.3-0.7,0.5
			c-0.2,0.2-0.4,0.4-0.5,0.7c-0.1,0.3-0.2,0.6-0.2,0.9c0,0.3,0.1,0.6,0.2,0.9c0.1,0.3,0.3,0.5,0.5,0.7c0.2,0.2,0.4,0.4,0.7,0.5
			C190.8,101.6,191.1,101.6,191.4,101.6z"/>
		<path class="st0" d="M198,102.2c-0.4,0-0.8-0.1-1.2-0.2c-0.4-0.1-0.7-0.3-0.9-0.6c-0.2-0.3-0.4-0.5-0.6-0.9
			c-0.1-0.3-0.2-0.7-0.2-1.1c0-0.4,0.1-0.8,0.2-1.1c0.1-0.3,0.3-0.7,0.6-0.9c0.3-0.3,0.6-0.5,0.9-0.6c0.3-0.1,0.7-0.2,1.2-0.2
			c0.4,0,0.8,0.1,1.1,0.2c0.3,0.1,0.6,0.3,0.9,0.6c0.2,0.2,0.4,0.5,0.6,0.9c0.1,0.3,0.2,0.7,0.2,1.1v0.3h-5.1c0,0.3,0.1,0.6,0.2,0.8
			c0.1,0.3,0.3,0.5,0.5,0.7c0.2,0.2,0.4,0.3,0.7,0.4c0.3,0.1,0.6,0.2,0.9,0.2c0.5,0,0.9-0.1,1.2-0.3c0.3-0.2,0.6-0.5,0.8-0.9
			l0.5,0.3c-0.3,0.5-0.7,0.8-1.1,1.1C199.2,102.1,198.6,102.2,198,102.2z M198,97c-0.3,0-0.6,0.1-0.8,0.2c-0.3,0.1-0.5,0.2-0.7,0.4
			c-0.2,0.2-0.4,0.4-0.5,0.6c-0.1,0.2-0.2,0.5-0.3,0.8h4.4c0-0.3-0.1-0.6-0.2-0.8c-0.1-0.2-0.3-0.5-0.4-0.6
			c-0.2-0.2-0.4-0.3-0.7-0.4C198.6,97.1,198.3,97,198,97z"/>
		<path class="st0" d="M206.5,102.2c-0.4,0-0.8-0.1-1.1-0.2c-0.3-0.1-0.6-0.3-0.9-0.6c-0.2-0.3-0.4-0.6-0.6-0.9
			c-0.1-0.3-0.2-0.7-0.2-1.1c0-0.4,0.1-0.8,0.2-1.1c0.1-0.3,0.3-0.6,0.6-0.9c0.3-0.3,0.5-0.5,0.9-0.6c0.3-0.1,0.7-0.2,1.1-0.2
			c0.2,0,0.4,0,0.6,0.1c0.2,0.1,0.4,0.1,0.6,0.2c0.2,0.1,0.4,0.2,0.5,0.4c0.2,0.2,0.3,0.3,0.4,0.5v-3.7h0.6v8h-0.6v-1.2
			c-0.1,0.2-0.3,0.4-0.4,0.5c-0.2,0.2-0.3,0.3-0.5,0.4c-0.2,0.1-0.4,0.2-0.6,0.2C207,102.2,206.8,102.2,206.5,102.2z M206.5,101.6
			c0.3,0,0.6-0.1,0.9-0.2c0.3-0.1,0.5-0.3,0.7-0.5c0.2-0.2,0.4-0.5,0.5-0.7c0.1-0.3,0.2-0.6,0.2-0.9s-0.1-0.6-0.2-0.9
			c-0.1-0.3-0.3-0.5-0.5-0.7c-0.2-0.2-0.4-0.4-0.7-0.5c-0.3-0.1-0.6-0.2-0.9-0.2c-0.3,0-0.6,0.1-0.9,0.2c-0.3,0.1-0.5,0.3-0.7,0.5
			c-0.2,0.2-0.4,0.4-0.5,0.7c-0.1,0.3-0.2,0.6-0.2,0.9c0,0.3,0.1,0.6,0.2,0.9c0.1,0.3,0.3,0.5,0.5,0.7c0.2,0.2,0.4,0.4,0.7,0.5
			C205.9,101.6,206.2,101.6,206.5,101.6z"/>
		<path class="st0" d="M213.2,102.2c-0.4,0-0.8-0.1-1.2-0.2c-0.4-0.1-0.7-0.3-0.9-0.6c-0.2-0.3-0.4-0.5-0.6-0.9
			c-0.1-0.3-0.2-0.7-0.2-1.1c0-0.4,0.1-0.8,0.2-1.1c0.1-0.3,0.3-0.7,0.6-0.9c0.3-0.3,0.6-0.5,0.9-0.6c0.3-0.1,0.7-0.2,1.2-0.2
			c0.4,0,0.8,0.1,1.1,0.2c0.3,0.1,0.6,0.3,0.9,0.6c0.2,0.2,0.4,0.5,0.6,0.9c0.1,0.3,0.2,0.7,0.2,1.1v0.3h-5.1c0,0.3,0.1,0.6,0.2,0.8
			c0.1,0.3,0.3,0.5,0.5,0.7c0.2,0.2,0.4,0.3,0.7,0.4c0.3,0.1,0.6,0.2,0.9,0.2c0.5,0,0.9-0.1,1.2-0.3c0.3-0.2,0.6-0.5,0.8-0.9
			l0.5,0.3c-0.3,0.5-0.7,0.8-1.1,1.1C214.3,102.1,213.8,102.2,213.2,102.2z M213.2,97c-0.3,0-0.6,0.1-0.8,0.2
			c-0.3,0.1-0.5,0.2-0.7,0.4c-0.2,0.2-0.4,0.4-0.5,0.6c-0.1,0.2-0.2,0.5-0.3,0.8h4.4c0-0.3-0.1-0.6-0.2-0.8
			c-0.1-0.2-0.3-0.5-0.4-0.6c-0.2-0.2-0.4-0.3-0.7-0.4C213.8,97.1,213.5,97,213.2,97z"/>
		<path class="st0" d="M219.2,94.7h0.6v6.8h4v0.6h-4.6V94.7z"/>
		<path class="st0" d="M224.7,94.9c0-0.1,0.1-0.3,0.2-0.4c0.1-0.1,0.2-0.2,0.4-0.2c0.2,0,0.3,0.1,0.4,0.2c0.1,0.1,0.2,0.2,0.2,0.4
			c0,0.2-0.1,0.3-0.2,0.4c-0.1,0.1-0.2,0.2-0.4,0.2c-0.2,0-0.3-0.1-0.4-0.2C224.7,95.2,224.7,95.1,224.7,94.9z M224.9,96.6h0.6v5.5
			h-0.6V96.6z"/>
		<path class="st0" d="M228.7,102.2c-0.6,0-1.1-0.1-1.5-0.3c-0.4-0.2-0.7-0.5-1-0.8l0.5-0.4c0.2,0.3,0.5,0.5,0.8,0.7
			c0.3,0.2,0.7,0.3,1.2,0.3c0.5,0,0.9-0.1,1.1-0.3s0.4-0.5,0.4-0.8c0-0.2,0-0.3-0.1-0.4c-0.1-0.1-0.2-0.2-0.4-0.3
			c-0.2-0.1-0.3-0.1-0.5-0.2c-0.2,0-0.4-0.1-0.6-0.1c-0.2,0-0.5-0.1-0.7-0.1c-0.2-0.1-0.4-0.1-0.6-0.2c-0.2-0.1-0.3-0.2-0.5-0.4
			c-0.1-0.2-0.2-0.4-0.2-0.7c0-0.2,0-0.4,0.1-0.6c0.1-0.2,0.2-0.4,0.4-0.5c0.2-0.1,0.4-0.3,0.6-0.3c0.2-0.1,0.5-0.1,0.9-0.1
			c0.5,0,0.9,0.1,1.3,0.3c0.3,0.2,0.6,0.4,0.9,0.7l-0.4,0.4c-0.2-0.2-0.4-0.4-0.7-0.6c-0.3-0.2-0.6-0.2-1-0.2
			c-0.5,0-0.8,0.1-1.1,0.3c-0.2,0.2-0.3,0.4-0.3,0.8c0,0.2,0,0.3,0.1,0.4c0.1,0.1,0.2,0.2,0.4,0.3c0.2,0.1,0.3,0.1,0.5,0.2
			c0.2,0,0.4,0.1,0.6,0.1c0.2,0,0.5,0.1,0.7,0.1c0.2,0.1,0.5,0.1,0.6,0.2c0.2,0.1,0.3,0.2,0.5,0.4c0.1,0.2,0.2,0.4,0.2,0.7
			c0,0.2,0,0.4-0.1,0.6c-0.1,0.2-0.2,0.4-0.4,0.5c-0.2,0.1-0.4,0.3-0.7,0.4C229.3,102.2,229,102.2,228.7,102.2z"/>
		<path class="st0" d="M234.5,102.2c-0.2,0-0.4,0-0.6-0.1c-0.2-0.1-0.4-0.1-0.6-0.2c-0.2-0.1-0.4-0.2-0.5-0.4
			c-0.2-0.2-0.3-0.3-0.4-0.5v1.2h-0.5v-8h0.6v3.7c0.1-0.2,0.2-0.4,0.4-0.5c0.2-0.2,0.3-0.3,0.5-0.4c0.2-0.1,0.4-0.2,0.6-0.2
			c0.2-0.1,0.4-0.1,0.6-0.1c0.4,0,0.8,0.1,1.1,0.2c0.3,0.1,0.6,0.3,0.9,0.6c0.3,0.3,0.5,0.6,0.6,0.9c0.1,0.3,0.2,0.7,0.2,1.1
			c0,0.4-0.1,0.8-0.2,1.1c-0.1,0.3-0.3,0.6-0.6,0.9c-0.2,0.3-0.5,0.4-0.9,0.6C235.3,102.1,234.9,102.2,234.5,102.2z M234.5,101.6
			c0.3,0,0.6-0.1,0.9-0.2c0.3-0.1,0.5-0.3,0.7-0.5c0.2-0.2,0.4-0.4,0.5-0.7c0.1-0.3,0.2-0.6,0.2-0.9c0-0.3-0.1-0.6-0.2-0.9
			c-0.1-0.3-0.3-0.5-0.5-0.7c-0.2-0.2-0.4-0.4-0.7-0.5c-0.3-0.1-0.6-0.2-0.9-0.2c-0.3,0-0.6,0.1-0.9,0.2c-0.3,0.1-0.5,0.3-0.7,0.5
			c-0.2,0.2-0.4,0.5-0.5,0.7c-0.1,0.3-0.2,0.6-0.2,0.9s0.1,0.6,0.2,0.9c0.1,0.3,0.3,0.5,0.5,0.7c0.2,0.2,0.4,0.4,0.7,0.5
			C233.8,101.6,234.1,101.6,234.5,101.6z"/>
		<path class="st0" d="M240.9,102.2c-0.4,0-0.8-0.1-1.1-0.2c-0.3-0.1-0.6-0.3-0.9-0.6c-0.3-0.3-0.4-0.6-0.6-0.9
			c-0.1-0.3-0.2-0.7-0.2-1.1c0-0.4,0.1-0.8,0.2-1.1c0.1-0.3,0.3-0.6,0.6-0.9c0.3-0.3,0.6-0.5,0.9-0.6c0.3-0.1,0.7-0.2,1.1-0.2
			c0.4,0,0.8,0.1,1.1,0.2c0.3,0.1,0.6,0.3,0.9,0.6s0.5,0.6,0.6,0.9c0.1,0.3,0.2,0.7,0.2,1.1c0,0.4-0.1,0.8-0.2,1.1
			c-0.1,0.3-0.3,0.6-0.6,0.9c-0.3,0.3-0.6,0.5-0.9,0.6C241.7,102.1,241.3,102.2,240.9,102.2z M240.9,101.6c0.3,0,0.6-0.1,0.9-0.2
			c0.3-0.1,0.5-0.3,0.7-0.5c0.2-0.2,0.4-0.4,0.5-0.7c0.1-0.3,0.2-0.6,0.2-0.9c0-0.3-0.1-0.6-0.2-0.9c-0.1-0.3-0.3-0.5-0.5-0.7
			c-0.2-0.2-0.4-0.4-0.7-0.5c-0.3-0.1-0.6-0.2-0.9-0.2c-0.3,0-0.6,0.1-0.9,0.2c-0.3,0.1-0.5,0.3-0.7,0.5c-0.2,0.2-0.4,0.4-0.5,0.7
			c-0.1,0.3-0.2,0.6-0.2,0.9c0,0.3,0.1,0.6,0.2,0.9c0.1,0.3,0.3,0.5,0.5,0.7c0.2,0.2,0.4,0.4,0.7,0.5
			C240.3,101.6,240.6,101.6,240.9,101.6z"/>
		<path class="st0" d="M246.4,102.2c-0.3,0-0.6,0-0.9-0.1c-0.2-0.1-0.4-0.2-0.6-0.3c-0.2-0.1-0.3-0.3-0.4-0.5
			c-0.1-0.2-0.1-0.4-0.1-0.6c0-0.3,0.1-0.5,0.2-0.7c0.1-0.2,0.3-0.4,0.5-0.5c0.2-0.1,0.5-0.3,0.8-0.3c0.3-0.1,0.7-0.1,1-0.1h1.8
			v-0.3c0-0.5-0.2-0.8-0.5-1.1c-0.3-0.3-0.7-0.4-1.3-0.4c-0.5,0-0.8,0.1-1.1,0.2c-0.3,0.2-0.6,0.4-0.8,0.7l-0.5-0.4
			c0.3-0.3,0.6-0.6,1-0.8c0.4-0.2,0.8-0.3,1.4-0.3c0.4,0,0.7,0.1,1,0.2c0.3,0.1,0.5,0.2,0.7,0.4c0.2,0.2,0.3,0.4,0.4,0.6
			c0.1,0.2,0.1,0.5,0.1,0.8v3.6h-0.6v-1c-0.3,0.3-0.6,0.6-1,0.8C247.3,102.1,246.8,102.2,246.4,102.2z M246.4,101.7
			c0.2,0,0.4,0,0.7-0.1c0.2-0.1,0.4-0.1,0.6-0.2c0.2-0.1,0.4-0.2,0.6-0.4c0.2-0.2,0.3-0.4,0.5-0.6v-1h-1.8c-0.6,0-1.1,0.1-1.4,0.3
			c-0.3,0.2-0.5,0.5-0.5,0.9c0,0.2,0,0.3,0.1,0.4c0.1,0.1,0.1,0.3,0.3,0.4c0.1,0.1,0.3,0.2,0.4,0.2
			C246,101.7,246.2,101.7,246.4,101.7z"/>
	</g>
</g>
<path id="Fill-158" class="st1" d="M311.2,107.8h-0.7v-2.3h0.7c0.4,0,0.6,0.2,0.6,0.6v1.2C311.8,107.6,311.6,107.8,311.2,107.8
	L311.2,107.8z M311.8,108.1c0.4-0.1,0.6-0.5,0.6-1v-1c0-0.7-0.4-1.1-1.2-1.1h-1.3v6.2h0.6v-2.8h0.5c0.4,0,0.6,0.1,0.7,0.6l0.2,2.2
	h0.6l-0.2-2.2C312.3,108.5,312.1,108.2,311.8,108.1L311.8,108.1z M311.3,119.9h0.6v-6.2h-0.6V119.9z M314,115.5v-0.7
	c0-0.3,0.2-0.5,0.6-0.5c0.4,0,0.6,0.2,0.6,0.6v1.1h0.6v-1.1c0-0.7-0.5-1.1-1.2-1.1c-0.8,0-1.2,0.4-1.2,1.1v0.7
	c0,1.6,1.9,1.6,1.9,2.8v0.6c0,0.3-0.3,0.5-0.6,0.5c-0.4,0-0.7-0.2-0.7-0.6v-1.1h-0.6v1.1c0,0.7,0.5,1.1,1.3,1.1
	c0.8,0,1.3-0.4,1.3-1.1v-0.6C315.8,116.6,314,116.6,314,115.5L314,115.5z M314.4,106.7V106c0-0.3,0.2-0.5,0.6-0.5
	c0.4,0,0.6,0.2,0.6,0.6v1.1h0.6V106c0-0.7-0.5-1.1-1.2-1.1c-0.8,0-1.2,0.4-1.2,1.1v0.7c0,1.6,1.9,1.6,1.9,2.8v0.6
	c0,0.3-0.3,0.5-0.6,0.5c-0.4,0-0.7-0.2-0.7-0.6v-1.1h-0.6v1.1c0,0.7,0.5,1.1,1.3,1.1c0.8,0,1.3-0.4,1.3-1.1v-0.6
	C316.3,107.8,314.4,107.8,314.4,106.7L314.4,106.7z M303.9,109.9L303,105h-0.6l1.2,6.2h0.6l1.2-6.2h-0.6L303.9,109.9z M308.6,113.8
	h-0.6v6.2h2.2v-0.5h-1.5V113.8z M302.6,119.9h2.2v-0.5h-1.6v-2.3h1.3v-0.5h-1.3v-2.3h1.6v-0.5h-2.2V119.9z M308.7,105.5V105h-2.2
	v6.2h2.2v-0.5h-1.6v-2.3h1.3v-0.5h-1.3v-2.3H308.7z M329.4,110c0,0.4-0.2,0.6-0.6,0.6h-0.7v-5.1h0.7c0.4,0,0.6,0.2,0.6,0.6V110z
	 M328.8,105h-1.3v6.2h1.3c0.8,0,1.2-0.4,1.2-1.1v-3.9C330,105.4,329.6,105,328.8,105L328.8,105z M331.5,111.1h2.2v-0.5h-1.6v-2.3
	h1.3v-0.5h-1.3v-2.3h1.6V105h-2.2V111.1z M319.1,118.8c0,0.4-0.2,0.6-0.6,0.6h-0.7v-2.3h0.7c0.4,0,0.6,0.2,0.6,0.6V118.8z
	 M317.8,114.3h0.6c0.4,0,0.6,0.2,0.6,0.5v1.2c0,0.3-0.2,0.5-0.6,0.5h-0.6V114.3z M319.1,116.8c0.3-0.1,0.6-0.4,0.6-0.8v-1.1
	c0-0.7-0.5-1.1-1.2-1.1h-1.3v6.2h1.3c0.8,0,1.2-0.4,1.2-1.1v-1.2C319.8,117.2,319.5,116.9,319.1,116.8L319.1,116.8z M283.3,97.8
	h59.3v-0.5h-59.3V97.8z M323,118.8c0,0.3-0.3,0.6-0.6,0.6c-0.4,0-0.6-0.2-0.6-0.6v-4c0-0.3,0.2-0.6,0.6-0.6c0.4,0,0.6,0.2,0.6,0.6
	V118.8z M322.3,113.7c-0.8,0-1.3,0.4-1.3,1.1v4c0,0.7,0.5,1.1,1.3,1.1c0.8,0,1.3-0.4,1.3-1.1v-4
	C323.6,114.1,323.1,113.7,322.3,113.7L322.3,113.7z M325.7,117.7l0.5-2.8l0.5,2.8H325.7z M325.8,113.7l-1.2,6.2h0.6l0.3-1.7h1.1
	l0.3,1.7h0.6l-1.2-6.2H325.8z M324.4,108.9l0.5-2.8l0.5,2.8H324.4z M325.7,111.1h0.6l-1.2-6.2h-0.6l-1.2,6.2h0.6l0.3-1.7h1.1
	L325.7,111.1z M320.4,105.5h0.7c0.4,0,0.6,0.2,0.6,0.6v3.9c0,0.4-0.2,0.6-0.6,0.6h-0.7V105.5z M322.3,110v-3.9
	c0-0.7-0.5-1.1-1.2-1.1h-1.3v6.2h1.3C321.8,111.1,322.3,110.7,322.3,110L322.3,110z M317.6,111.1h0.6V105h-0.6V111.1z M300.6,111.1
	h0.6V105h-0.6V111.1z M309.4,80.1v-3.2c0-1.5-0.9-2.4-2.5-2.4c-1.6,0-2.5,0.9-2.5,2.4v2.1c0,3.7,3.5,4,3.5,6.7v1.9
	c0,0.5-0.4,0.9-1,0.9s-1-0.4-1-0.9v-3.2h-1.5v3.2c0,1.5,0.9,2.4,2.5,2.4c1.6,0,2.5-0.9,2.5-2.4v-1.9c0-3.6-3.5-4.1-3.5-6.7v-2.1
	c0-0.5,0.4-0.9,1-0.9s1,0.4,1,0.9v3.2H309.4z M330.3,84.4h-1.5l0.7-6.2L330.3,84.4z M326.7,89.9h1.5l0.5-4.1h1.8l0.5,4.1h1.5
	l-2.1-15.3h-1.5L326.7,89.9z M315.6,87.6c0,0.5-0.3,0.9-0.9,0.9h-1.1v-5.6h1.1c0.6,0,0.9,0.4,0.9,0.9V87.6z M313.6,76h1
	c0.6,0,0.9,0.4,0.9,0.9v3.7c0,0.5-0.3,0.9-0.9,0.9h-1V76z M317,80.6V77c0-1.5-0.8-2.3-2.5-2.3H312v15.2h2.6c1.6,0,2.5-0.8,2.5-2.3
	v-3.8c0-0.8-0.4-1.3-1.2-1.6C316.6,82,317,81.4,317,80.6L317,80.6z M300.3,89.9h1.5V74.7h-1.5V89.9z M300.5,118.8
	c0,0.4-0.2,0.6-0.6,0.6h-0.7v-5.1h0.7c0.4,0,0.6,0.2,0.6,0.6V118.8z M299.9,113.8h-1.3v6.2h1.3c0.8,0,1.2-0.4,1.2-1.1v-3.9
	C301.1,114.2,300.7,113.8,299.9,113.8L299.9,113.8z M323.1,76.9v10.7c0,0.5-0.4,0.9-1,0.9c-0.6,0-1-0.4-1-0.9V76.9
	c0-0.5,0.4-0.9,1-0.9C322.8,76,323.1,76.4,323.1,76.9L323.1,76.9z M319.6,76.9v10.7c0,1.5,0.9,2.4,2.5,2.4c1.6,0,2.5-0.9,2.5-2.4
	V76.9c0-1.5-0.9-2.4-2.5-2.4C320.5,74.6,319.6,75.5,319.6,76.9L319.6,76.9z M299.1,111.1V105h-0.6v2.8c0,0.6,0,1.1,0,1.7l-1.4-4.5
	h-0.7v6.2h0.6v-2.8c0-0.6,0-1.1,0-1.7l1.4,4.6H299.1z M294.4,110c0,0.4-0.3,0.6-0.6,0.6c-0.4,0-0.6-0.2-0.6-0.6V105h-0.6v5.1
	c0,0.7,0.5,1.1,1.3,1.1c0.8,0,1.3-0.4,1.3-1.1V105h-0.6V110z M293.9,74.7v15.2h4.2v-1.4h-2.7V74.7H293.9z M312.8,65
	c11.1,0,20.1-8.4,20.1-20.8V0h-9.5v49c0,8.5-4.8,15.4-10.6,15.4c-5.9,0-10.6-6.9-10.6-15.4V0h-9.5v44.3
	C292.7,56.7,301.7,65,312.8,65L312.8,65z"/>
</svg>
